<svg t="1714196790740" class="icon" viewBox="0 0 1024 1024" version="1.1" xmlns="http://www.w3.org/2000/svg" p-id="1681" id="mx_n_1714196790741" width="16" height="16"><path d="M414.268 211.655c34.286 33.534 80.64 31.254 124.508 27.993 5.375 0 8.68 0.055 10.443 0.143 28.73 0.701 57.886 3.731 86.38-0.084 29.995-4.015 53.111-21.13 68.973-47.23 9.822-16.161 29.78-47.676 13.92-65.042-7.49-8.197-19.202-11.753-29.382-14.75-16.397-4.811-33.235-8.448-50.027-11.438-71.457-12.712-144.957-9.582-215.22 8.803-18.944 4.958-44.587 12.166-44.106 36.875 0.459 23.518 18.692 49.259 34.511 64.73z m134.95 28.136c-3.487-0.086-6.97-0.143-10.442-0.143-41.59 3.09 22.878 0.767 10.443 0.143z m164.16 81.314c-147.29-70.615-317.646-28.49-435.404 81.427-58.258 54.38-103.08 124.517-124.432 202.607-19.399 70.945-26.123 150.16-3.057 221.072 20.811 63.97 66.284 113.87 123.693 145.481 33.048 18.202 68.994 30.623 105.52 39.034 51.5 11.86 105.25 9.24 157.667 9.07l7.795 0.322c71.606 6.757 148.163 4.68 216.814-16.857 39.483-12.389 76.807-32.443 108.66-59.472 65.05-55.207 94.598-131.959 96.187-217.416 3.192-171.646-103.403-333.328-253.443-405.268z m-44.596 291.964c11.813 0 17.72 5.907 17.72 17.72 0 11.46-5.907 17.181-17.72 17.181h-88.059v52.084h88.06c11.812 0 17.718 5.906 17.718 17.72 0 11.46-5.906 17.181-17.719 17.181h-88.059v74.636c0 8.952-1.166 14.942-3.49 17.987-2.332 3.037-7.61 4.563-15.84 4.563-7.165 0-12.265-1.527-15.303-4.563-3.045-3.045-4.564-9.036-4.564-17.987v-74.636H454.54c-11.812 0-17.72-5.722-17.72-17.182 0-11.813 5.546-17.719 16.647-17.719h88.058V647.97H454.54c-11.812 0-17.72-5.722-17.72-17.181 0-11.813 5.546-17.72 16.647-17.72H517.9a68583.433 68583.433 0 0 0-38.391-62.822 42498.97 42498.97 0 0 1-38.392-62.822c-6.443-11.813-5.193-20.757 3.759-26.848 4.647-3.22 8.943-4.472 12.886-3.758 3.935 0.721 7.87 4.296 11.813 10.74l87.522 145.511H567.3a43035.666 43035.666 0 0 0 42.419-71.95 39365.021 39365.021 0 0 1 42.42-71.95c5.008-8.231 9.48-12.258 13.423-12.082 3.934 0.185 8.23 1.703 12.886 4.564 5.009 3.22 7.693 6.804 8.054 10.738 0.352 3.944-1.435 9.129-5.369 15.572L605.961 613.07h62.821z" fill="#080808" p-id="1682"></path></svg>